<?xml version="1.0" encoding="UTF-8" standalone="no"?>
<!-- Created with Inkscape (http://www.inkscape.org/) -->

<svg
   width="174.15921mm"
   height="133.47552mm"
   viewBox="0 0 174.15921 133.47552"
   version="1.1"
   id="svg1"
   xml:space="preserve"
   xmlns="http://www.w3.org/2000/svg"
   xmlns:svg="http://www.w3.org/2000/svg"><defs
     id="defs1" /><g
     id="layer1"
     transform="translate(-17.965518,-75.260936)"><path
       style="fill:#000000"
       d="m 18.101578,208.39644 c -0.421885,-1.09941 -0.03682,-1.22769 3.685174,-1.22769 1.950909,0 3.914973,-0.0736 4.364587,-0.1635 0.807137,-0.16143 0.812491,-0.17315 0.423154,-0.92604 -0.43022,-0.83195 -0.356309,-0.90969 0.453066,-0.47653 0.293938,0.15731 0.586775,0.23368 0.65075,0.16971 0.06397,-0.064 -0.439851,-1.26672 -1.119612,-2.67275 -0.679762,-1.40604 -1.169351,-2.62301 -1.087976,-2.70439 0.180303,-0.1803 1.248274,0.4765 2.8397,1.74641 0.654843,0.52255 1.518046,1.15578 1.918229,1.40719 l 0.727604,0.4571 v -1.35643 -1.35642 l 0.935248,0.82115 c 1.680508,1.47551 1.933965,1.02381 1.220979,-2.176 -0.281195,-1.26198 -0.434897,-2.28989 -0.341559,-2.28425 0.09334,0.006 0.765019,0.71524 1.492623,1.57689 1.035037,1.22573 1.449163,1.53989 1.903068,1.44372 0.319083,-0.0676 0.877037,0.0123 1.239898,0.17768 1.194343,0.54418 1.367857,0.2438 1.222659,-2.11663 -0.07276,-1.18284 -0.07182,-2.15053 0.0021,-2.15043 0.07392,1e-4 0.669229,0.79082 1.322916,1.75714 l 1.188524,1.75696 0.08136,-1.0955 c 0.04475,-0.60252 0.134354,-1.0955 0.199126,-1.0955 0.06477,0 0.553254,0.48203 1.085514,1.07118 0.64889,0.71824 1.149925,1.04515 1.520666,0.99219 0.481633,-0.0688 0.58377,-0.34336 0.792209,-2.12952 0.13161,-1.12778 0.313861,-2.05052 0.405002,-2.05052 0.09114,0 0.614455,0.9069 1.16292,2.01533 1.279255,2.58533 1.411612,2.50951 1.467006,-0.84032 0.02041,-1.23415 0.132596,-1.93848 0.29298,-1.83935 0.142948,0.0883 0.820248,1.16693 1.50511,2.39686 0.684862,1.22993 1.341811,2.23623 1.459885,2.23623 0.118075,0 0.214681,-0.59531 0.214681,-1.32291 0,-1.48259 0.262069,-1.67624 0.805652,-0.59532 0.625508,1.24383 1.361086,2.22095 1.538316,2.04345 0.09327,-0.0934 0.178688,-1.91596 0.189827,-4.05012 0.01491,-2.85689 0.130217,-4.16634 0.437186,-4.96482 0.229313,-0.59649 0.337421,-1.21318 0.24024,-1.37042 -0.167432,-0.27091 -2.571815,-1.29595 -12.339345,-5.26055 -5.494299,-2.23011 -6.095802,-2.58124 -6.755244,-3.94347 -0.671179,-1.38647 -0.597745,-1.72991 1.580351,-7.39104 0.895816,-2.32834 1.90741,-5.00724 2.247987,-5.95313 0.340576,-0.94588 0.881202,-2.3151 1.201392,-3.04271 0.320189,-0.7276 1.341373,-3.40244 2.269298,-5.94409 1.809302,-4.95579 2.208273,-5.68211 3.554128,-6.47018 1.191895,-0.69792 2.182603,-0.44267 8.072921,2.07993 2.619374,1.12179 6.012655,2.5547 7.540624,3.18425 1.527969,0.62956 3.833568,1.57933 5.123554,2.11062 2.318362,0.95483 2.915053,1.03641 2.317918,0.3169 -0.168769,-0.20335 -0.234402,-0.55853 -0.145852,-0.78929 0.112443,-0.29302 -1.293265,-1.99879 -4.661005,-5.65593 -8.331892,-9.04787 -13.071531,-14.17357 -13.482531,-14.58071 -0.865056,-0.85695 -1.319511,-1.81555 -1.321173,-2.78681 -0.0035,-2.05287 2.540016,-3.54952 4.134427,-2.43275 0.518063,0.36286 1.607584,1.55341 10.411594,11.37695 8.589665,9.58438 9.266541,10.26419 10.061621,10.10517 0.543829,-0.10876 0.792341,0.0392 1.292848,0.76962 0.36975,0.53961 0.562955,1.1209 0.479115,1.44151 -0.07727,0.29549 -0.0011,0.68398 0.169264,0.86332 0.170367,0.17934 2.625962,2.88592 5.456876,6.01462 2.830915,3.1287 5.212018,5.74807 5.291341,5.82083 0.07932,0.0728 1.443441,1.56104 3.031373,3.30729 1.587932,1.74625 4.094165,4.48469 5.569407,6.08542 1.475241,1.60073 3.257161,3.53549 3.95982,4.29948 0.702661,0.76398 1.483451,1.38906 1.735101,1.38906 0.30957,0 0.7159,-0.57757 1.25642,-1.78594 1.20797,-2.70044 1.5601,-3.03565 3.3443,-3.18361 1.1847,-0.0983 1.48229,-0.2093 1.36687,-0.51007 -0.0812,-0.21147 -0.14754,-1.49096 -0.14754,-2.84332 v -2.45883 l -0.7276,-0.15818 c -1.27724,-0.27768 -1.52329,-0.5917 -1.49538,-1.90849 0.0241,-1.13863 0.23693,-1.50732 1.03235,-1.78861 0.15337,-0.0542 0.10199,-0.29047 -0.12223,-0.562 -0.34825,-0.42175 -0.31497,-0.52078 0.3338,-0.99338 l 0.72062,-0.52493 -0.69582,-0.82693 c -0.3827,-0.45481 -1.49907,-1.7238 -2.48082,-2.81997 -0.98174,-1.09616 -2.90114,-3.24319 -4.265327,-4.77115 -1.364187,-1.52797 -2.600687,-2.90741 -2.747779,-3.06542 -0.147091,-0.15801 -1.041345,-1.16446 -1.98723,-2.23656 -3.92931,-4.45361 -6.434419,-7.13344 -6.668355,-7.13344 -0.13689,0 -1.272757,0.71437 -2.524149,1.5875 -2.640185,1.84212 -3.643434,2.03858 -4.546625,0.89036 -1.214294,-1.54372 -0.715616,-2.35046 3.023504,-4.89128 3.189339,-2.16724 3.96019,-2.72669 4.056945,-2.94439 0.04851,-0.10914 0.545881,-0.19844 1.105275,-0.19844 0.783632,0 1.142948,0.16001 1.565451,0.69714 0.640511,0.81428 0.720919,2.26986 0.151496,2.74244 -0.723652,0.60058 -0.814909,0.46269 3.413348,5.15746 1.178596,1.30863 2.743533,3.03503 3.477638,3.83645 0.734105,0.80143 2.329548,2.58823 3.545428,3.97068 1.21588,1.38244 2.93697,3.29921 3.82464,4.25948 0.88767,0.96027 2.1283,2.30738 2.75695,2.99358 0.91002,0.99332 1.21777,1.1856 1.50977,0.94326 0.48823,-0.40519 0.66976,-0.2627 1.85174,1.45348 l 1.0074,1.4627 h 2.80091 c 2.07716,0 3.45024,0.16353 5.31383,0.63288 3.35421,0.84476 3.36919,0.85285 3.48957,1.88391 0.14181,1.21475 -0.1715,1.93959 -0.96954,2.243 -0.65366,0.24853 -0.66856,0.3133 -0.66856,2.90657 0,1.45881 -6.1e-4,2.74168 -10e-4,2.85082 -7.4e-4,0.10914 1.13742,0.2326 2.52924,0.27436 l 2.53057,0.0759 -0.0818,-1.12835 c -0.0816,-1.12487 -0.0867,-1.12999 -1.66934,-1.66341 -1.43328,-0.48309 -1.5942,-0.61218 -1.65643,-1.32882 -0.13491,-1.55359 0.18672,-1.65517 2.67502,-0.84482 1.23048,0.40073 2.39765,0.92161 2.5937,1.15752 0.19605,0.23591 0.41599,1.15503 0.48875,2.04249 l 0.13229,1.61356 1.76087,0.13229 c 1.42549,0.1071 1.96102,0.28348 2.8117,0.92604 0.57795,0.43657 1.93378,1.46097 3.01296,2.27646 2.69801,2.03878 2.82292,2.08917 5.1788,2.08917 2.37308,0 2.52774,0.0846 3.75677,2.05426 0.74353,1.1916 1.03853,1.43547 2.04213,1.68818 2.48117,0.62476 5.62257,3.27549 6.89046,5.81419 0.63601,1.2735 1.40152,3.96011 1.40152,4.91875 0,1.11283 0.77082,0.63619 1.5875,-0.98163 0.79681,-1.57847 1.49776,-2.13384 1.25227,-0.99219 -0.0704,0.32742 -0.0481,0.89297 0.0496,1.25677 0.15932,0.59335 0.29739,0.4367 1.34091,-1.52135 0.63982,-1.20055 1.25944,-2.18282 1.37693,-2.18282 0.11749,0 0.21362,0.91633 0.21362,2.03628 v 2.03628 l 0.92605,-0.89756 0.92604,-0.89755 v 0.97794 c 0,1.29051 0.56472,1.28456 1.35204,-0.0142 0.76465,-1.26142 2.35681,-3.24115 2.60663,-3.24115 0.10492,0 0.0977,0.56555 -0.0161,1.25677 -0.36944,2.2445 -0.29842,2.92186 0.32719,3.12042 0.4422,0.14035 0.71341,-0.0145 1.24312,-0.70977 0.80045,-1.05065 2.69069,-2.87367 2.97963,-2.87367 0.11131,0 -0.10014,0.89977 -0.46989,1.99949 -0.36975,1.09971 -0.60895,2.0628 -0.53156,2.14018 0.0774,0.0774 0.59432,-0.16753 1.14874,-0.54427 1.28602,-0.87387 1.43628,-0.86072 1.24238,0.10877 -0.17169,0.85845 0.28559,1.12827 0.56052,0.33073 0.0878,-0.25466 0.51253,-0.87524 0.94387,-1.37907 0.87066,-1.01696 0.93194,-0.86096 0.5184,1.31964 -0.14622,0.77101 -0.20048,1.46722 -0.12058,1.54712 0.0799,0.0799 0.42598,-0.20676 0.76906,-0.63703 l 0.62378,-0.7823 0.19146,1.27671 c 0.1053,0.70219 0.33672,1.33245 0.51427,1.40058 0.17755,0.0681 0.96628,-0.51696 1.75274,-1.30021 0.78646,-0.78325 1.83507,-1.70297 2.33025,-2.04381 l 0.90032,-0.61972 -0.19279,0.77441 c -0.10604,0.42592 -0.66001,1.77316 -1.23106,2.99385 -1.34881,2.88329 -1.34372,3.05177 0.0862,2.85038 0.61847,-0.0871 1.45362,-0.23586 1.8559,-0.33057 0.62404,-0.14691 0.70505,-0.10348 0.55181,0.29586 -0.18466,0.48122 0.0617,0.47425 1.89177,-0.0535 0.47632,-0.13735 0.46311,-0.0767 -0.13229,0.60702 -0.3638,0.41779 -0.75076,0.79969 -0.8599,0.84867 -0.10914,0.049 -0.19843,0.19473 -0.19843,0.3239 0,0.12917 1.57757,0.26808 3.50572,0.30868 3.40848,0.0718 3.50808,0.0903 3.59028,0.66914 l 0.0846,0.59531 H 106.817 c -46.919242,0 -86.036887,0.0762 -86.928101,0.16937 -1.358795,0.14202 -1.647273,0.0993 -1.786911,-0.26459 z M 148.11167,204.6059 c 2.76131,-1.57449 3.77258,-4.82916 2.49526,-8.03072 -0.34543,-0.86579 -2.24516,-2.58108 -3.38703,-3.05818 -2.71069,-1.1326 -6.29903,0.39739 -7.67026,3.27043 -0.61495,1.28845 -0.60755,3.87253 0.0146,5.10384 1.66098,3.28723 5.43893,4.4871 8.54742,2.71463 z m -4.62792,-1.94319 c -0.78543,-0.39804 -1.27007,-0.89155 -1.65365,-1.68392 -0.68122,-1.40722 -0.6787,-1.8285 0.0196,-3.271 1.10515,-2.28292 3.72188,-2.78463 5.65789,-1.08479 1.82124,1.59907 1.75354,4.03081 -0.15503,5.56839 -1.28444,1.03478 -2.47158,1.1794 -3.86881,0.47132 z m -11.4725,1.39718 c 0.54581,-0.44185 -0.26926,-0.45968 -17.83102,-0.3899 l -18.40297,0.0731 -0.444925,-0.93302 c -0.498621,-1.04562 -0.876085,-1.21085 -0.876085,-0.3835 0,0.30223 0.348029,0.89755 0.773398,1.32292 l 0.773397,0.77339 h 17.718125 c 16.48012,0 17.75809,-0.0324 18.29008,-0.46302 z m -57.717258,-0.47152 c 1.967352,-0.58424 4.393365,-2.88691 5.419588,-5.14404 0.710837,-1.56345 0.769228,-1.90984 0.669015,-3.96875 -0.220178,-4.52369 -2.614752,-7.55127 -6.822709,-8.62632 -4.176909,-1.06711 -8.536587,0.95053 -10.454853,4.83846 -0.891554,1.807 -1.213722,5.13111 -0.664549,6.85678 0.795159,2.49864 3.307163,5.1513 5.712782,6.03266 1.382589,0.50655 4.453876,0.51216 6.140726,0.0112 z m -4.271039,-3.341 c -2.053554,-0.45341 -3.873986,-2.3598 -4.269004,-4.47058 -0.627405,-3.35255 2.554412,-6.86601 5.924644,-6.54218 2.946802,0.28315 5.181648,2.66034 5.165988,5.49502 -0.02083,3.7707 -3.175873,6.32268 -6.821628,5.51774 z m 60.911667,1.9641 c 0.53607,-0.44459 0.56585,-0.72339 0.62915,-5.89064 l 0.0664,-5.42396 h 0.92604 0.92604 l 0.0708,2.38125 c 0.0389,1.30969 0.13025,2.54507 0.20292,2.74528 0.0753,0.20764 0.48417,-0.34051 0.95157,-1.27586 0.99955,-2.00027 3.08185,-4.15573 4.86013,-5.03089 0.7276,-0.35808 2.19396,-0.83824 3.25858,-1.06703 l 1.93566,-0.41598 -0.66626,-0.7189 c -0.55303,-0.59674 -0.89019,-0.71891 -1.98398,-0.71891 -1.09112,0 -1.34699,0.0922 -1.48791,0.53622 -0.4252,1.33969 -0.71482,1.37456 -11.30635,1.36139 -5.42194,-0.007 -11.64401,-0.14244 -13.82683,-0.30154 -6.98244,-0.50894 -13.41133,-1.08981 -16.387339,-1.48064 -1.591477,-0.20901 -3.77925,-0.38001 -4.861719,-0.38001 h -1.968124 l 0.156766,0.78383 c 0.16476,0.8238 1.751657,3.43659 2.092192,3.44475 0.109141,0.003 0.198438,-0.22662 0.198438,-0.50941 0,-0.73471 1.006237,-1.38442 1.628406,-1.05145 0.453277,0.24259 0.48826,0.70506 0.48826,6.45471 0,6.06484 0.01198,6.20178 0.577073,6.59759 0.501892,0.35154 2.686297,0.40568 16.767207,0.41554 15.0883,0.0106 16.22842,-0.0204 16.75284,-0.45534 z m -25.372,-7.61696 c -0.86376,-0.91943 -0.81133,-2.33949 0.12072,-3.26955 0.78594,-0.78427 -0.56625,-0.74151 13.77603,-0.43557 3.78355,0.0807 7.12461,0.14517 7.42459,0.14326 0.9114,-0.006 1.70404,0.95372 1.69949,2.05734 -0.009,2.18801 0.0764,2.17251 -11.97098,2.17251 h -10.42231 z m -15.595604,0.54465 c -0.494205,-0.50989 -0.949554,-0.87607 -1.011888,-0.81373 -0.163711,0.16371 -0.263533,3.14353 -0.114332,3.41297 0.06912,0.12482 0.552967,-0.20036 1.07522,-0.72261 l 0.949553,-0.94956 z m -2.261334,-8.33619 c 0.648611,-1.25427 2.252652,-5.33048 2.252652,-5.72446 0,-0.19753 -1.004139,-1.45378 -2.23142,-2.79167 l -2.23142,-2.43253 -4.449309,-1.81852 c -10.44777,-4.27022 -19.623426,-7.98701 -20.853474,-8.44714 -0.727605,-0.27218 -1.525953,-0.61021 -1.774107,-0.7512 -0.248155,-0.14098 -2.629405,-1.14366 -5.291667,-2.22819 -2.662262,-1.08452 -5.709734,-2.33274 -6.772161,-2.77381 l -1.931686,-0.80195 -0.535136,1.24731 c -0.938191,2.18677 -0.934403,2.59026 0.02747,2.92557 0.592649,0.2066 0.812005,0.43147 0.743886,0.76258 -0.07592,0.36902 -0.332065,0.45918 -1.196111,0.42099 -1.081765,-0.0478 -1.106815,-0.0286 -1.552457,1.19063 -0.249124,0.68157 -1.029859,2.72638 -1.734969,4.54402 -0.70511,1.81765 -1.282018,3.38358 -1.282018,3.47985 0,0.0963 0.357188,0.29955 0.79375,0.45174 0.436563,0.15218 0.79375,0.44691 0.79375,0.65494 0,0.58364 -0.598425,0.93221 -1.190625,0.69352 -0.953323,-0.38426 -1.086021,-0.26959 -1.699693,1.46871 -0.806665,2.28498 -0.633515,2.92307 0.98196,3.61875 0.685795,0.29532 1.864605,0.82244 2.619578,1.17138 0.754973,0.34893 1.428724,0.63442 1.497226,0.63442 0.0685,0 2.872327,1.1311 6.230725,2.51355 3.358398,1.38244 6.218135,2.51354 6.354972,2.51354 0.136836,0 0.665775,-0.68461 1.175419,-1.52136 3.720783,-6.10885 11.265998,-9.35543 18.286388,-7.86832 4.607762,0.97604 8.991985,4.12958 11.661259,8.38783 0.429961,0.68591 0.808455,1.25146 0.841098,1.25677 0.03264,0.005 0.242398,-0.34431 0.466122,-0.77695 z m 50.795488,-0.52303 c 0.0854,-0.13822 -0.0871,-0.38107 -0.38348,-0.53966 -0.29633,-0.1586 -1.62287,-1.11707 -2.94784,-2.12994 l -2.40906,-1.84159 H 118.93105 105.1013 l -0.15954,0.59531 c -0.0877,0.32742 -0.16116,1.02855 -0.16315,1.55805 -0.003,0.87958 0.0707,0.97589 0.85629,1.11494 1.38185,0.24457 10.04098,0.96968 14.35364,1.20196 5.80387,0.31261 18.32761,0.34029 18.51263,0.0409 z M 91.9968,183.98639 c 0.556773,-0.14929 0.563742,-0.18617 0.153473,-0.81232 l -0.429785,-0.65594 -0.342535,0.6175 c -0.57405,1.03485 -0.491421,1.14845 0.618847,0.85076 z m 5.086804,-0.82858 c -1.479376,-1.69289 -5.058014,-5.64037 -6.884384,-7.59394 -3.854768,-4.12323 -7.875568,-8.51802 -9.54168,-10.42919 -0.968094,-1.11048 -2.707591,-3.02803 -3.86555,-4.26122 -2.022045,-2.15342 -2.133028,-2.22957 -2.803892,-1.9239 -0.384182,0.17504 -0.698513,0.41787 -0.698513,0.53962 0,0.398 10.552693,12.41599 14.452,16.45873 1.490767,1.54561 1.653985,1.72502 4.333416,4.76319 3.100697,3.51584 2.999653,3.4389 4.516407,3.4389 h 1.359243 z m 23.037226,-7.73906 v -2.11667 h -5.42396 -5.42395 v 1.94028 c 0,1.06715 0.0794,2.01965 0.17639,2.11667 0.097,0.097 2.53779,0.17638 5.42395,0.17638 h 5.24757 z m -38.837841,-4.29597 c -0.450464,-0.47487 -1.625997,-1.75638 -2.612298,-2.84778 -3.698611,-4.09276 -3.890182,-4.23281 -8.044161,-5.88095 -4.688791,-1.86033 -10.275373,-4.16585 -11.940657,-4.92776 -0.68324,-0.31261 -1.302995,-0.56837 -1.377232,-0.56837 -0.135548,0 -4.555479,-1.84033 -7.335473,-3.05428 -1.898208,-0.82889 -3.002387,-0.84603 -3.516181,-0.0546 -0.610922,0.94107 -1.279172,3.14875 -1.028869,3.39905 0.227016,0.22702 3.248017,1.52001 9.208343,3.94119 1.74625,0.70935 4.960937,2.02587 7.143749,2.92558 10.645807,4.38803 20.099268,8.15384 20.204566,8.04854 0.06448,-0.0645 -0.251324,-0.50577 -0.701787,-0.98064 z m -7.758468,-13.14223 c 1.606161,-1.25318 1.796148,-1.49144 1.529611,-1.91823 -0.167385,-0.26803 -0.467715,-0.48732 -0.6674,-0.48732 -0.397465,0 -1.645297,0.94698 -3.116746,2.36529 -0.884054,0.85213 -0.913675,0.93239 -0.465175,1.26034 0.609699,0.44582 0.5506,0.47233 2.71971,-1.22008 z m -2.041707,-1.52052 c 0.26612,-0.24083 0.483854,-0.54459 0.483854,-0.675 0,-0.21206 -2.392689,-3.01047 -5.043365,-5.89857 -4.387706,-4.78072 -10.772819,-11.87426 -12.260105,-13.62037 -1.48544,-1.74394 -1.840922,-1.96746 -2.536773,-1.59505 -1.138671,0.6094 -0.7135,1.40378 2.774619,5.18401 1.455208,1.57708 3.305758,3.58635 4.112332,4.46504 0.806574,0.87869 2.025153,2.19293 2.707952,2.92053 0.6828,0.72761 2.939907,3.19209 5.015793,5.47662 2.075887,2.28454 3.884026,4.15977 4.018089,4.16719 0.134062,0.007 0.461484,-0.18356 0.727604,-0.4244 z M 174.75729,130.64617 c -0.29104,-0.16804 -1.5412,-1.07763 -2.77813,-2.02133 -1.23692,-0.94369 -3.97536,-3.02931 -6.08541,-4.6347 -2.11006,-1.60539 -4.82496,-3.72667 -6.03312,-4.71396 -1.9789,-1.61711 -7.56168,-5.60472 -9.74499,-6.96055 -4.44278,-2.75895 -6.77577,-4.9489 -11.62595,-10.91312 l -0.54884,-0.67491 -1.56102,0.8567 c -0.85856,0.47119 -2.07202,1.15617 -2.69656,1.52217 -1.35597,0.79465 -1.20128,0.8669 -4.70401,-2.19712 -1.3125,-1.148109 -3.69375,-3.216455 -5.29167,-4.596323 -6.2008,-5.354653 -6.51765,-5.674848 -12.3755,-12.506253 -2.58924,-3.019557 -4.80929,-5.490104 -4.93346,-5.490104 -0.12417,0 -1.63711,1.514203 -3.36209,3.364896 -1.72498,1.850692 -3.374457,3.608134 -3.665498,3.905426 -0.621636,0.634986 -7.765447,6.85165 -8.965563,7.801984 -0.453211,0.358883 -3.599414,2.978258 -6.991563,5.820833 -3.392149,2.842571 -6.455524,5.398071 -6.807501,5.678881 l -0.639958,0.51056 -4.751644,-2.42879 c -2.613404,-1.33584 -4.839375,-2.42879 -4.946603,-2.42879 -0.107228,0 -1.9303,1.70804 -4.051271,3.79566 -2.120971,2.08761 -5.046937,4.78799 -6.502145,6.00084 -1.455208,1.21285 -3.130862,2.63019 -3.723675,3.14965 -0.592814,0.51946 -1.498228,1.30166 -2.012032,1.73822 -1.187501,1.00898 -9.5658,8.39992 -9.742417,8.5943 -0.864642,0.95159 -5.169896,4.37029 -5.503628,4.37029 -1.081731,0 -0.453455,-0.97331 2.384556,-3.6941 1.642729,-1.57488 5.248968,-5.08803 8.013863,-7.80701 2.764896,-2.71897 5.622396,-5.40988 6.35,-5.97979 2.474399,-1.93813 7.665143,-6.32741 8.895746,-7.52223 4.779413,-4.640432 4.927819,-4.762498 5.790195,-4.762498 0.544865,0 2.289468,0.754665 4.893225,2.116668 2.225551,1.16417 4.254835,2.11667 4.50952,2.11667 0.410499,0 1.459499,-0.75162 3.18986,-2.28557 11.538776,-10.228993 14.144838,-12.455821 16.74386,-14.307292 1.705387,-1.21487 3.238075,-2.630752 4.894793,-4.521759 4.52275,-5.162352 5.81731,-6.450592 6.29673,-6.265975 0.24485,0.09429 1.1746,1.053253 2.06611,2.131034 0.89151,1.07778 1.76579,2.109919 1.94285,2.293642 0.17707,0.183723 1.66593,1.966963 3.3086,3.962755 1.64267,1.995793 3.36602,3.945438 3.82967,4.332545 0.46365,0.387107 2.03784,1.849811 3.4982,3.250452 3.37841,3.24026 8.47324,7.968657 9.55383,8.866688 0.45757,0.38027 1.05866,0.69139 1.33576,0.69139 0.2771,0 1.5696,-0.4744 2.87222,-1.054236 1.30263,-0.579831 2.61725,-1.05608 2.92139,-1.058333 0.53409,-0.004 2.14204,1.527429 6.59057,6.276719 1.1869,1.26715 3.32574,2.98591 6.32101,5.07953 7.50882,5.24847 10.18008,7.30444 17.16042,13.20775 3.6747,3.10771 6.95677,5.88174 7.29349,6.16451 1.00592,0.84476 0.49615,1.86392 -0.61222,1.22398 z m -37.61301,-3.59631 c -3.01885,-2.61404 -4.16563,-4.02022 -5.75872,-7.06132 -0.83854,-1.60073 -1.62155,-3.02948 -1.74002,-3.175 -0.11847,-0.14552 -0.64312,-1.11814 -1.16589,-2.16137 -1.09474,-2.18466 -1.27902,-3.79175 -0.43478,-3.79175 0.28363,0 0.80703,0.38695 1.1631,0.85989 0.73301,0.97361 3.19067,5.87616 4.14488,8.26823 0.49169,1.23258 1.11079,2.06074 2.76914,3.70417 2.60416,2.58075 3.88473,4.1068 3.76016,4.481 -0.22514,0.67631 -1.04992,0.33776 -2.73787,-1.12385 z m -16.68179,-1.70351 c -0.79433,-0.8687 -1.23506,-1.84282 -2.4305,-5.37197 -1.28613,-3.79688 -1.65323,-5.35514 -1.31137,-5.56642 0.43735,-0.27029 0.97786,0.42389 1.42538,1.83063 0.23948,0.75279 1.27659,3.05017 2.30471,5.10529 1.13134,2.26148 1.80406,3.90657 1.70405,4.16718 -0.23501,0.61243 -1.05463,0.53265 -1.69227,-0.16471 z M 59.266669,114.20872 c 0,-0.63038 0.932258,-1.22878 3.791313,-2.43356 3.099884,-1.30628 3.881603,-1.44373 3.881603,-0.68256 0,0.62997 -0.342978,0.88502 -1.984375,1.47563 -0.727604,0.26181 -2.116779,0.81809 -3.087056,1.23619 -1.946785,0.83887 -2.601485,0.94061 -2.601485,0.4043 z m 22.930306,-2.4034 c -0.176746,-0.46059 1.359594,-1.80176 6.188809,-5.4026 4.794091,-3.57464 5.182718,-3.9085 6.345249,-5.45094 0.553875,-0.73489 1.483121,-1.871934 2.064991,-2.526778 0.95153,-1.070862 1.099589,-1.150138 1.471925,-0.788129 0.374232,0.363853 0.25642,0.676741 -1.227118,3.258997 -1.623381,2.82567 -1.668322,2.87458 -4.163359,4.53119 -1.387245,0.92107 -4.182964,2.81804 -6.21271,4.21548 -2.029746,1.39744 -3.832711,2.54079 -4.006588,2.54079 -0.173878,0 -0.381417,-0.1701 -0.461199,-0.37801 z"
       id="path1" /></g></svg>
